<svg preserveAspectRatio="xMidYMid meet" overflow="visible" style="display: block;" viewBox="0 0 143.877 147.68" fill="none" xmlns="http://www.w3.org/2000/svg">
<g id="Group">
<path id="Vector" d="M34.7681 69.536C53.9699 69.536 69.536 53.9698 69.536 34.768C69.536 15.5661 53.9699 0 34.7681 0C15.5662 0 0 15.5661 0 34.768C0 53.9698 15.5662 69.536 34.7681 69.536Z" fill="url(#paint0_linear_0_54)"/>
<path id="Vector_2" d="M109.109 69.843C128.311 69.843 143.877 54.2768 143.877 35.075C143.877 15.8731 128.311 0.306976 109.109 0.306976C89.9072 0.306976 74.3411 15.8731 74.3411 35.075C74.3411 54.2768 89.9072 69.843 109.109 69.843Z" fill="url(#paint1_linear_0_54)"/>
<path id="Vector_3" d="M72.807 71.99H0.817993V143.979H72.807V71.99Z" fill="url(#paint2_linear_0_54)"/>
<path id="Vector_4" d="M142.411 147.68V66.809L72.374 107.244L142.411 147.68Z" fill="url(#paint3_linear_0_54)"/>
</g>
<defs>
<linearGradient id="paint0_linear_0_54" x1="40.806" y1="0.523" x2="28.729" y2="69.013" gradientUnits="userSpaceOnUse">
<stop offset="0.137" stop-color="#E2A950"/>
<stop offset="1" stop-color="#FEFCF0"/>
</linearGradient>
<linearGradient id="paint1_linear_0_54" x1="115.147" y1="0.829976" x2="103.071" y2="69.32" gradientUnits="userSpaceOnUse">
<stop offset="0.137" stop-color="#E2A950"/>
<stop offset="1" stop-color="#FEFCF0"/>
</linearGradient>
<linearGradient id="paint2_linear_0_54" x1="44.054" y1="66.92" x2="29.572" y2="149.049" gradientUnits="userSpaceOnUse">
<stop offset="0.137" stop-color="#E2A950"/>
<stop offset="1" stop-color="#FEFCF0"/>
</linearGradient>
<linearGradient id="paint3_linear_0_54" x1="118.82" y1="62.649" x2="104.991" y2="141.081" gradientUnits="userSpaceOnUse">
<stop offset="0.137" stop-color="#E2A950"/>
<stop offset="1" stop-color="#FEFCF0"/>
</linearGradient>
</defs>
</svg>
