<svg preserveAspectRatio="xMidYMid meet" overflow="visible" style="display: block;" viewBox="0 0 186.098 119.766" fill="none" xmlns="http://www.w3.org/2000/svg">
<path id="Vector" d="M173.493 0H12.605C5.63798 0 0 6.25699 0 13.977V105.789C0 113.508 5.63898 119.766 12.605 119.766H173.493C180.46 119.766 186.098 113.509 186.098 105.789V13.977C186.098 6.25799 180.459 0 173.493 0ZM28.3629 34.957C22.2649 34.957 17.3159 29.465 17.3159 22.668C17.3159 15.871 22.2649 10.41 28.3629 10.41C34.4609 10.41 39.4369 15.902 39.4369 22.668C39.4369 29.434 34.4879 34.957 28.3629 34.957ZM174.188 33.823L47.5229 34.107V12.329H174.188V33.824V33.823Z" fill="url(#paint0_linear_0_59)"/>
<defs>
<linearGradient id="paint0_linear_0_59" x1="93.0489" y1="0" x2="93.0489" y2="119.766" gradientUnits="userSpaceOnUse">
<stop offset="0.246" stop-color="#E2A950"/>
<stop offset="1" stop-color="#FEFCF0"/>
</linearGradient>
</defs>
</svg>
