<svg preserveAspectRatio="none" width="100%" height="100%" overflow="visible" style="display: block;" viewBox="0 0 242.805 977.368" fill="none" xmlns="http://www.w3.org/2000/svg">
<g id="Group">
<path id="Vector" d="M242.805 796.951V977.368L66.132 976.287L115.945 796.348L242.805 796.951Z" fill="url(#paint0_linear_0_60)"/>
<path id="Vector_2" d="M242.805 633.833V785.502L105.942 784.671L0 474.492C46.672 427.001 111.143 349.84 160.683 240.176C196.919 159.931 214.251 86.4694 222.889 30.1924C222.616 30.2154 222.354 30.2154 222.081 30.2154C213.728 30.1584 207.013 23.3534 207.059 15.0114C207.116 6.66936 213.922 -0.0566404 222.263 0.000359628C225.393 0.0113596 237.422 2.75436 237.536 2.84536L235.237 484.382C188.85 493.6 161.217 538.679 171.107 577.976C178.766 608.362 207.923 631.749 242.805 633.832V633.833Z" fill="url(#paint1_linear_0_60)"/>
</g>
<defs>
<linearGradient id="paint0_linear_0_60" x1="154.469" y1="796.348" x2="154.469" y2="977.368" gradientUnits="userSpaceOnUse">
<stop stop-color="#E2A950" stop-opacity="0.9"/>
<stop offset="0.838" stop-color="#FEFCF0"/>
</linearGradient>
<linearGradient id="paint1_linear_0_60" x1="121.402" y1="0.000359628" x2="121.402" y2="785.502" gradientUnits="userSpaceOnUse">
<stop offset="0.241" stop-color="#E2A950"/>
<stop offset="1" stop-color="#FEFCF0"/>
</linearGradient>
</defs>
</svg>
