<svg preserveAspectRatio="none" width="100%" height="100%" overflow="visible" style="display: block;" viewBox="0 0 1048.69 556.439" fill="none" xmlns="http://www.w3.org/2000/svg">
<g id="Group" opacity="0.25">
<path id="Vector" opacity="0.35" d="M180.11 22.934C185.239 13.217 188.318 5.99201 189.346 1.25801H280.556L162.022 543.158H49.646L131.234 169.434H0L15.779 96.932C50.926 95.437 75.682 93.195 90.055 90.205C113.146 85.476 133.158 76.003 150.092 61.802C161.889 52.085 171.895 39.134 180.11 22.935V22.934Z" fill="url(#paint0_linear_0_76)"/>
<path id="Vector_2" opacity="0.73" d="M744.871 73.055C762.721 121.356 761.956 189.969 742.575 278.893C722.929 367.822 693.659 436.306 654.766 484.359C615.865 532.418 561.085 556.439 490.435 556.439C419.785 556.439 375.46 532.417 357.478 484.359C339.495 436.305 340.319 367.822 359.965 278.893C379.346 189.969 408.557 121.356 447.583 73.055C486.609 24.754 541.448 0.603012 612.106 0.603012C682.764 0.603012 727.014 24.754 744.872 73.055H744.871ZM630.088 278.893C644.112 214.001 649.535 165.942 646.349 134.732C643.155 103.522 625.364 87.917 592.975 87.917C560.586 87.917 535.708 103.522 518.366 134.732C501.016 165.942 485.329 214.001 471.305 278.893C457.531 340.818 452.299 388.193 455.618 421.008C458.929 453.833 476.787 470.241 509.183 470.241C541.579 470.241 566.383 453.833 583.601 421.008C600.818 388.193 616.314 340.818 630.088 278.893Z" fill="url(#paint1_linear_0_76)"/>
<path id="Vector_3" d="M948.824 21.55C953.923 11.89 956.984 4.706 958.007 0H1048.69L930.842 538.745H819.12L900.233 167.196H769.763L785.45 95.116C820.393 93.63 845.005 91.401 859.294 88.428C882.251 83.727 902.146 74.309 918.981 60.19C930.709 50.53 940.657 37.654 948.825 21.549L948.824 21.55Z" fill="url(#paint2_linear_0_76)"/>
</g>
<defs>
<linearGradient id="paint0_linear_0_76" x1="140.278" y1="1.25801" x2="140.278" y2="543.158" gradientUnits="userSpaceOnUse">
<stop stop-color="#E2A950"/>
<stop offset="1" stop-color="#FEFCF0"/>
</linearGradient>
<linearGradient id="paint1_linear_0_76" x1="551.146" y1="0.603012" x2="551.146" y2="556.44" gradientUnits="userSpaceOnUse">
<stop stop-color="#E2A950"/>
<stop offset="1" stop-color="#FEFCF0"/>
</linearGradient>
<linearGradient id="paint2_linear_0_76" x1="909.224" y1="0" x2="909.224" y2="538.746" gradientUnits="userSpaceOnUse">
<stop stop-color="#E2A950"/>
<stop offset="1" stop-color="#FEFCF0"/>
</linearGradient>
</defs>
</svg>
