<svg preserveAspectRatio="none" width="100%" height="100%" overflow="visible" style="display: block;" viewBox="0 0 254.331 22.6349" fill="none" xmlns="http://www.w3.org/2000/svg">
<g id="Group">
<path id="Vector" d="M2.11609 15.095C0.705089 13.466 0 11.583 0 9.44696C0 6.90596 0.857021 4.74801 2.57202 2.97101C4.47302 0.991008 7.0261 0 10.2301 0C13.0051 0 15.1871 0.70198 16.7771 2.10498C18.2651 3.43098 19.01 5.14896 19.01 7.26196C19.01 9.03896 18.478 10.557 17.415 11.816C16.351 13.075 15.16 13.704 13.843 13.704C13.07 13.704 12.502 13.519 12.135 13.149C11.769 12.779 11.5861 12.333 11.5861 11.811C11.5861 11.725 11.594 11.635 11.609 11.542C11.624 11.449 11.6451 11.351 11.6671 11.25C11.2541 12.146 10.7321 12.779 10.1011 13.149C9.46907 13.519 8.81807 13.704 8.14807 13.704C7.18907 13.704 6.41204 13.357 5.81604 12.664C5.21904 11.971 4.92102 11.078 4.92102 9.987C4.92102 8.436 5.42902 7.067 6.44702 5.883C7.46402 4.699 8.55805 4.10596 9.72705 4.10596C10.5221 4.10596 11.178 4.33596 11.696 4.79596C12.215 5.25596 12.4891 5.80896 12.5211 6.45496L13.1061 4.49097H14.8251L13.269 9.61298C13.152 10.01 13.0671 10.33 13.0121 10.571C12.9571 10.813 12.9301 11.027 12.9301 11.215C12.9301 11.566 13.0381 11.821 13.2521 11.981C13.4661 12.141 13.71 12.221 13.983 12.221C14.872 12.221 15.668 11.757 16.373 10.83C17.079 9.90196 17.431 8.68999 17.431 7.19299C17.431 5.38399 16.8001 3.96397 15.5371 2.93097C14.2741 1.89797 12.5751 1.383 10.4391 1.383C7.47709 1.383 5.21209 2.24697 3.64709 3.97797C2.30609 5.45197 1.63611 7.30298 1.63611 9.53198C1.63611 11.481 2.2741 13.118 3.5531 14.443C5.0501 16.01 7.181 16.793 9.948 16.793C11.242 16.793 12.446 16.589 13.561 16.18C14.675 15.77 15.696 15.219 16.623 14.526L17.3961 15.577C16.6941 16.201 15.645 16.786 14.25 17.332C12.855 17.877 11.3191 18.149 9.64307 18.149C6.38507 18.149 3.87504 17.132 2.11304 15.098L2.11609 15.095ZM11.4821 5.89899C11.1591 5.51399 10.713 5.32098 10.145 5.32098C9.25702 5.32098 8.48801 5.84598 7.83801 6.89398C7.18801 7.94198 6.86304 8.984 6.86304 10.021C6.86304 10.785 7.03111 11.367 7.36511 11.769C7.69911 12.171 8.12008 12.3719 8.62708 12.3719C9.67708 12.3719 10.4971 11.758 11.0841 10.53C11.6731 9.30297 11.9661 8.194 11.9661 7.203C11.9661 6.72 11.8041 6.28596 11.4811 5.89996L11.4821 5.89899Z" fill="var(--fill-0, white)"/>
<path id="Vector_2" d="M24.255 5.12299L27.599 15.318L31.083 5.12299H33.3861L28.6731 17.644H26.4301L21.811 5.12299H24.255Z" fill="var(--fill-0, white)"/>
<path id="Vector_3" d="M35.1931 0.467957H37.332V2.85297H35.1931V0.467957ZM35.1931 5.18097H37.332V17.644H35.1931V5.18097Z" fill="var(--fill-0, white)"/>
<path id="Vector_4" d="M48.2471 5.46698C49.0761 5.88398 49.7071 6.42398 50.1411 7.08698C50.5591 7.71698 50.837 8.45396 50.978 9.29596C51.101 9.87196 51.1631 10.793 51.1631 12.055H42.056C42.095 13.329 42.3931 14.351 42.9501 15.121C43.5061 15.891 44.368 16.275 45.536 16.275C46.627 16.275 47.4961 15.911 48.1461 15.183C48.5101 14.76 48.7671 14.271 48.9191 13.715H50.989C50.934 14.175 50.7531 14.687 50.4451 15.252C50.1371 15.817 49.793 16.279 49.415 16.638C48.781 17.261 47.9951 17.682 47.0591 17.901C46.5561 18.026 45.987 18.088 45.353 18.088C43.804 18.088 42.4911 17.521 41.4141 16.387C40.3371 15.252 39.7981 13.664 39.7981 11.623C39.7981 9.61199 40.341 7.978 41.426 6.724C42.51 5.469 43.9281 4.84198 45.6791 4.84198C46.5611 4.84198 47.4181 5.04998 48.2471 5.46698ZM49 10.383C48.915 9.472 48.7171 8.74296 48.4081 8.19696C47.8371 7.18296 46.882 6.677 45.545 6.677C44.586 6.677 43.7821 7.02596 43.1331 7.72296C42.4831 8.41996 42.1401 9.307 42.1011 10.383H49Z" fill="var(--fill-0, white)"/>
<path id="Vector_5" d="M54.249 1.62598H56.3771V5.12195H58.3771V6.83997H56.3771V15.012C56.3771 15.449 56.525 15.741 56.821 15.889C56.985 15.974 57.257 16.018 57.639 16.018C57.741 16.018 57.8491 16.0149 57.9661 16.0099C58.0831 16.0049 58.2191 15.992 58.3761 15.971V17.642C58.1341 17.712 57.8831 17.763 57.6221 17.795C57.3611 17.826 57.078 17.842 56.774 17.842C55.792 17.842 55.125 17.59 54.775 17.088C54.423 16.585 54.248 15.932 54.248 15.13V6.83997H52.552V5.12195H54.248L54.249 1.62598Z" fill="var(--fill-0, white)"/>
<path id="Vector_6" d="M60.4821 5.12299H62.4811V6.89996C63.0741 6.16696 63.701 5.63998 64.364 5.32098C65.027 5.00198 65.7631 4.84198 66.5741 4.84198C68.3511 4.84198 69.551 5.46095 70.175 6.69995C70.518 7.37795 70.6891 8.349 70.6891 9.612V17.644H68.5491V9.75299C68.5491 8.98799 68.4361 8.37197 68.2101 7.90497C67.8361 7.12597 67.157 6.73596 66.175 6.73596C65.677 6.73596 65.267 6.78698 64.948 6.88898C64.372 7.06098 63.8641 7.40297 63.4281 7.91797C63.0771 8.33097 62.85 8.758 62.744 9.198C62.639 9.638 62.5861 10.269 62.5861 11.086V17.646H60.4811V5.125L60.4821 5.12299Z" fill="var(--fill-0, white)"/>
<path id="Vector_7" d="M80.509 10.066C80.992 10.004 81.3161 9.80198 81.4801 9.45898C81.5741 9.27198 81.6201 9.00096 81.6201 8.64996C81.6201 7.92996 81.3651 7.40801 80.8551 7.08301C80.3461 6.75801 79.6161 6.59497 78.6671 6.59497C77.5701 6.59497 76.792 6.89295 76.333 7.48895C76.077 7.81795 75.91 8.30701 75.832 8.95801H73.868C73.907 7.41001 74.407 6.33299 75.369 5.72699C76.331 5.12099 77.4461 4.81799 78.7151 4.81799C80.1861 4.81799 81.381 5.09897 82.3 5.65997C83.211 6.22097 83.666 7.09497 83.666 8.27997V15.494C83.666 15.712 83.711 15.887 83.8 16.02C83.889 16.153 84.0791 16.218 84.3671 16.218C84.4611 16.218 84.566 16.212 84.682 16.201C84.8 16.189 84.924 16.1719 85.056 16.1479V17.704C84.729 17.798 84.4801 17.855 84.3081 17.879C84.1371 17.902 83.9031 17.914 83.6061 17.914C82.8821 17.914 82.3551 17.658 82.0281 17.143C81.8561 16.87 81.735 16.484 81.666 15.985C81.237 16.546 80.6211 17.033 79.8181 17.447C79.0161 17.86 78.1311 18.066 77.1641 18.066C76.0031 18.066 75.053 17.7129 74.317 17.0099C73.58 16.3049 73.212 15.423 73.212 14.365C73.212 13.205 73.5751 12.306 74.2991 11.668C75.0251 11.03 75.9761 10.636 77.1521 10.489L80.5081 10.068L80.509 10.066ZM76.077 15.751C76.522 16.102 77.048 16.276 77.656 16.276C78.396 16.276 79.114 16.105 79.807 15.763C80.976 15.196 81.561 14.265 81.561 12.973V11.28C81.304 11.445 80.9731 11.582 80.5691 11.691C80.1651 11.801 79.768 11.879 79.379 11.926L78.1071 12.089C77.3441 12.191 76.7711 12.35 76.3871 12.568C75.7361 12.934 75.411 13.517 75.411 14.318C75.411 14.925 75.634 15.403 76.077 15.753V15.751Z" fill="var(--fill-0, white)"/>
<path id="Vector_8" d="M87.1151 5.12299H89.196V6.89996C89.695 6.28396 90.147 5.83599 90.552 5.55499C91.245 5.07899 92.0331 4.84198 92.9141 4.84198C93.9111 4.84198 94.715 5.087 95.323 5.578C95.666 5.859 95.9781 6.27096 96.2581 6.81696C96.7261 6.14696 97.276 5.64997 97.906 5.32697C98.538 5.00397 99.247 4.84198 100.035 4.84198C101.719 4.84198 102.863 5.44995 103.471 6.66595C103.798 7.32095 103.963 8.20101 103.963 9.30701V17.644H101.776V8.94501C101.776 8.11101 101.568 7.53799 101.151 7.22699C100.734 6.91499 100.225 6.75897 99.625 6.75897C98.798 6.75897 98.0881 7.03599 97.4911 7.58899C96.8951 8.14199 96.5961 9.06599 96.5961 10.36V17.643H94.457V9.47101C94.457 8.62101 94.3551 8.00096 94.1531 7.61096C93.8341 7.02596 93.2371 6.73395 92.3651 6.73395C91.5701 6.73395 90.8461 7.04196 90.1951 7.65796C89.5441 8.27396 89.2191 9.38795 89.2191 11.002V17.643H87.114V5.12195L87.1151 5.12299Z" fill="var(--fill-0, white)"/>
<path id="Vector_9" d="M106.886 5.18097H108.944V6.841C109.366 6.272 109.826 5.83098 110.327 5.51898C111.038 5.05098 111.874 4.81696 112.835 4.81696C114.257 4.81696 115.465 5.36097 116.457 6.44897C117.449 7.53597 117.945 9.08897 117.945 11.108C117.945 13.836 117.229 15.785 115.798 16.954C114.89 17.694 113.834 18.064 112.629 18.064C111.681 18.064 110.887 17.858 110.246 17.444C109.87 17.21 109.452 16.81 108.99 16.24V22.6349H106.885V5.17999L106.886 5.18097ZM114.804 14.996C115.457 14.174 115.783 12.944 115.783 11.307C115.783 10.31 115.639 9.45199 115.349 8.73499C114.802 7.35499 113.801 6.66595 112.346 6.66595C110.883 6.66595 109.883 7.39399 109.343 8.85199C109.053 9.63199 108.909 10.621 108.909 11.822C108.909 12.789 109.053 13.61 109.343 14.289C109.89 15.582 110.891 16.229 112.346 16.229C113.331 16.229 114.151 15.818 114.804 14.996Z" fill="var(--fill-0, white)"/>
<path id="Vector_10" d="M120.437 5.12299H122.436V7.28497C122.6 6.86397 123.001 6.35199 123.64 5.74799C124.279 5.14399 125.017 4.84198 125.85 4.84198C125.889 4.84198 125.956 4.84497 126.049 4.85297C126.142 4.86097 126.302 4.87596 126.528 4.89996V7.12097C126.403 7.09797 126.288 7.08197 126.183 7.07397C126.077 7.06597 125.962 7.06195 125.837 7.06195C124.778 7.06195 123.963 7.404 123.394 8.086C122.825 8.768 122.541 9.55296 122.541 10.442V17.644H120.436L120.437 5.12299Z" fill="var(--fill-0, white)"/>
<path id="Vector_11" d="M136.087 5.46698C136.916 5.88398 137.547 6.42398 137.981 7.08698C138.399 7.71698 138.677 8.45396 138.818 9.29596C138.941 9.87196 139.003 10.793 139.003 12.055H129.896C129.935 13.329 130.233 14.351 130.79 15.121C131.346 15.891 132.208 16.275 133.376 16.275C134.467 16.275 135.336 15.911 135.986 15.183C136.35 14.76 136.607 14.271 136.759 13.715H138.829C138.774 14.175 138.593 14.687 138.285 15.252C137.977 15.817 137.633 16.279 137.255 16.638C136.621 17.261 135.835 17.682 134.899 17.901C134.396 18.026 133.827 18.088 133.193 18.088C131.644 18.088 130.331 17.521 129.254 16.387C128.177 15.252 127.638 13.664 127.638 11.623C127.638 9.61199 128.181 7.978 129.266 6.724C130.35 5.469 131.768 4.84198 133.519 4.84198C134.401 4.84198 135.258 5.04998 136.087 5.46698ZM136.84 10.383C136.755 9.472 136.557 8.74296 136.248 8.19696C135.677 7.18296 134.722 6.677 133.385 6.677C132.426 6.677 131.622 7.02596 130.973 7.72296C130.323 8.41996 129.98 9.307 129.941 10.383H136.84Z" fill="var(--fill-0, white)"/>
<path id="Vector_12" d="M142.92 13.716C142.984 14.418 143.163 14.955 143.458 15.329C143.999 16.007 144.937 16.347 146.274 16.347C147.069 16.347 147.77 16.177 148.373 15.838C148.978 15.499 149.28 14.975 149.28 14.265C149.28 13.728 149.039 13.318 148.556 13.038C148.246 12.866 147.637 12.668 146.726 12.441L145.026 12.02C143.941 11.756 143.141 11.459 142.627 11.131C141.708 10.563 141.248 9.77496 141.248 8.76996C141.248 7.58496 141.68 6.62601 142.545 5.89301C143.41 5.16101 144.573 4.79498 146.034 4.79498C147.946 4.79498 149.324 5.34798 150.17 6.45398C150.699 7.15598 150.956 7.91196 150.941 8.72296H148.952C148.912 8.24896 148.741 7.81901 148.438 7.43201C147.944 6.88201 147.086 6.60596 145.865 6.60596C145.052 6.60596 144.435 6.757 144.016 7.06C143.597 7.363 143.388 7.76295 143.388 8.25995C143.388 8.80395 143.664 9.239 144.215 9.565C144.532 9.759 145.001 9.93 145.62 10.078L147.038 10.417C148.578 10.783 149.61 11.138 150.135 11.481C150.953 12.018 151.363 12.864 151.363 14.018C151.363 15.132 150.934 16.095 150.078 16.906C149.222 17.716 147.918 18.1219 146.166 18.1219C144.28 18.1219 142.944 17.699 142.159 16.853C141.374 16.007 140.953 14.961 140.898 13.713H142.92V13.716Z" fill="var(--fill-0, white)"/>
<path id="Vector_13" d="M154.892 13.716C154.956 14.418 155.135 14.955 155.43 15.329C155.971 16.007 156.909 16.347 158.246 16.347C159.041 16.347 159.742 16.177 160.345 15.838C160.95 15.499 161.252 14.975 161.252 14.265C161.252 13.728 161.011 13.318 160.528 13.038C160.218 12.866 159.609 12.668 158.698 12.441L156.998 12.02C155.913 11.756 155.113 11.459 154.599 11.131C153.68 10.563 153.22 9.77496 153.22 8.76996C153.22 7.58496 153.652 6.62601 154.517 5.89301C155.382 5.16101 156.545 4.79498 158.006 4.79498C159.918 4.79498 161.296 5.34798 162.142 6.45398C162.671 7.15598 162.928 7.91196 162.913 8.72296H160.924C160.884 8.24896 160.713 7.81901 160.41 7.43201C159.916 6.88201 159.058 6.60596 157.837 6.60596C157.024 6.60596 156.407 6.757 155.988 7.06C155.569 7.363 155.36 7.76295 155.36 8.25995C155.36 8.80395 155.636 9.239 156.187 9.565C156.504 9.759 156.973 9.93 157.592 10.078L159.01 10.417C160.55 10.783 161.582 11.138 162.107 11.481C162.925 12.018 163.335 12.864 163.335 14.018C163.335 15.132 162.906 16.095 162.05 16.906C161.194 17.716 159.89 18.1219 158.138 18.1219C156.252 18.1219 154.916 17.699 154.131 16.853C153.346 16.007 152.925 14.961 152.87 13.713H154.892V13.716Z" fill="var(--fill-0, white)"/>
<path id="Vector_14" d="M165.614 5.12299H167.695V6.89996C168.194 6.28396 168.646 5.83599 169.051 5.55499C169.744 5.07899 170.532 4.84198 171.413 4.84198C172.41 4.84198 173.214 5.087 173.822 5.578C174.165 5.859 174.477 6.27096 174.757 6.81696C175.225 6.14696 175.775 5.64997 176.405 5.32697C177.037 5.00397 177.746 4.84198 178.534 4.84198C180.218 4.84198 181.362 5.44995 181.97 6.66595C182.297 7.32095 182.462 8.20101 182.462 9.30701V17.644H180.275V8.94501C180.275 8.11101 180.067 7.53799 179.65 7.22699C179.233 6.91499 178.724 6.75897 178.124 6.75897C177.297 6.75897 176.587 7.03599 175.99 7.58899C175.394 8.14199 175.095 9.06599 175.095 10.36V17.643H172.956V9.47101C172.956 8.62101 172.854 8.00096 172.652 7.61096C172.333 7.02596 171.736 6.73395 170.864 6.73395C170.069 6.73395 169.345 7.04196 168.694 7.65796C168.043 8.27396 167.718 9.38795 167.718 11.002V17.643H165.613V5.12195L165.614 5.12299Z" fill="var(--fill-0, white)"/>
<path id="Vector_15" d="M187.665 5.12299V13.435C187.665 14.074 187.764 14.596 187.961 15.002C188.326 15.75 189.005 16.124 189.999 16.124C191.426 16.124 192.397 15.469 192.914 14.16C193.195 13.458 193.336 12.496 193.336 11.272V5.12299H195.441V17.644H193.452L193.476 15.797C193.208 16.273 192.875 16.674 192.477 17.002C191.69 17.657 190.733 17.9839 189.609 17.9839C187.858 17.9839 186.665 17.387 186.03 16.195C185.685 15.556 185.514 14.7029 185.514 13.6349V5.12299H187.665Z" fill="var(--fill-0, white)"/>
<path id="Vector_16" d="M200.129 13.716C200.193 14.418 200.372 14.955 200.667 15.329C201.208 16.007 202.146 16.347 203.483 16.347C204.278 16.347 204.979 16.177 205.582 15.838C206.187 15.499 206.489 14.975 206.489 14.265C206.489 13.728 206.248 13.318 205.765 13.038C205.455 12.866 204.846 12.668 203.935 12.441L202.235 12.02C201.15 11.756 200.35 11.459 199.836 11.131C198.917 10.563 198.457 9.77496 198.457 8.76996C198.457 7.58496 198.889 6.62601 199.754 5.89301C200.619 5.16101 201.782 4.79498 203.243 4.79498C205.155 4.79498 206.533 5.34798 207.379 6.45398C207.908 7.15598 208.165 7.91196 208.15 8.72296H206.161C206.121 8.24896 205.95 7.81901 205.647 7.43201C205.153 6.88201 204.295 6.60596 203.074 6.60596C202.261 6.60596 201.644 6.757 201.225 7.06C200.806 7.363 200.597 7.76295 200.597 8.25995C200.597 8.80395 200.873 9.239 201.424 9.565C201.741 9.759 202.21 9.93 202.829 10.078L204.247 10.417C205.787 10.783 206.819 11.138 207.344 11.481C208.162 12.018 208.572 12.864 208.572 14.018C208.572 15.132 208.143 16.095 207.287 16.906C206.431 17.716 205.127 18.1219 203.375 18.1219C201.489 18.1219 200.153 17.699 199.368 16.853C198.583 16.007 198.162 14.961 198.107 13.713H200.129V13.716Z" fill="var(--fill-0, white)"/>
<path id="Vector_17" d="M218.585 5.46698C219.414 5.88398 220.045 6.42398 220.479 7.08698C220.897 7.71698 221.175 8.45396 221.316 9.29596C221.439 9.87196 221.501 10.793 221.501 12.055H212.394C212.433 13.329 212.731 14.351 213.288 15.121C213.844 15.891 214.706 16.275 215.874 16.275C216.965 16.275 217.834 15.911 218.484 15.183C218.848 14.76 219.105 14.271 219.257 13.715H221.327C221.272 14.175 221.091 14.687 220.783 15.252C220.475 15.817 220.131 16.279 219.753 16.638C219.119 17.261 218.333 17.682 217.397 17.901C216.894 18.026 216.325 18.088 215.691 18.088C214.142 18.088 212.829 17.521 211.752 16.387C210.675 15.252 210.136 13.664 210.136 11.623C210.136 9.61199 210.679 7.978 211.764 6.724C212.848 5.469 214.266 4.84198 216.017 4.84198C216.899 4.84198 217.756 5.04998 218.585 5.46698ZM219.339 10.383C219.254 9.472 219.056 8.74296 218.747 8.19696C218.176 7.18296 217.221 6.677 215.884 6.677C214.925 6.677 214.121 7.02596 213.472 7.72296C212.822 8.41996 212.479 9.307 212.44 10.383H219.338H219.339Z" fill="var(--fill-0, white)"/>
<path id="Vector_18" d="M226.271 5.12299V13.435C226.271 14.074 226.37 14.596 226.567 15.002C226.932 15.75 227.611 16.124 228.605 16.124C230.032 16.124 231.003 15.469 231.52 14.16C231.801 13.458 231.942 12.496 231.942 11.272V5.12299H234.047V17.644H232.058L232.082 15.797C231.814 16.273 231.481 16.674 231.083 17.002C230.296 17.657 229.339 17.9839 228.215 17.9839C226.464 17.9839 225.271 17.387 224.636 16.195C224.291 15.556 224.12 14.7029 224.12 13.6349V5.12299H226.271Z" fill="var(--fill-0, white)"/>
<path id="Vector_19" d="M237.483 5.12299H239.564V6.89996C240.063 6.28396 240.515 5.83599 240.92 5.55499C241.613 5.07899 242.401 4.84198 243.282 4.84198C244.279 4.84198 245.083 5.087 245.691 5.578C246.034 5.859 246.346 6.27096 246.626 6.81696C247.094 6.14696 247.644 5.64997 248.274 5.32697C248.906 5.00397 249.615 4.84198 250.403 4.84198C252.087 4.84198 253.231 5.44995 253.839 6.66595C254.166 7.32095 254.331 8.20101 254.331 9.30701V17.644H252.144V8.94501C252.144 8.11101 251.936 7.53799 251.519 7.22699C251.102 6.91499 250.593 6.75897 249.993 6.75897C249.166 6.75897 248.456 7.03599 247.859 7.58899C247.263 8.14199 246.964 9.06599 246.964 10.36V17.643H244.825V9.47101C244.825 8.62101 244.723 8.00096 244.521 7.61096C244.202 7.02596 243.605 6.73395 242.733 6.73395C241.938 6.73395 241.214 7.04196 240.563 7.65796C239.912 8.27396 239.587 9.38795 239.587 11.002V17.643H237.482V5.12195L237.483 5.12299Z" fill="var(--fill-0, white)"/>
</g>
</svg>
