<svg preserveAspectRatio="xMidYMid meet" overflow="visible" style="display: block;" viewBox="0 0 179.341 150.653" fill="none" xmlns="http://www.w3.org/2000/svg">
<path id="Vector" d="M172.57 35.039H166.402L30.682 0L28.2671 9.33099L127.846 35.039H6.75806C3.01806 35.039 0 38.07 0 41.797V137.399C0 144.722 5.93209 150.653 13.2411 150.653H172.569C176.309 150.653 179.341 147.635 179.341 143.895V41.81C179.341 38.07 176.31 35.038 172.569 35.038L172.57 35.039ZM43.1101 72.532C42.7951 72.991 42.3881 73.411 41.9291 73.726C30.6821 81.482 18.4651 69.264 26.2211 58.018C26.5361 57.559 26.9561 57.152 27.4281 56.837C38.6091 49.344 50.6041 61.338 43.1101 72.532ZM76.0231 72.401C75.7081 72.86 75.301 73.28 74.842 73.595C63.648 81.233 51.535 69.146 59.134 57.9C59.449 57.428 59.8691 57.021 60.3411 56.693C71.5751 49.095 83.6611 61.207 76.0231 72.401Z" fill="url(#paint0_linear_0_71)"/>
<defs>
<linearGradient id="paint0_linear_0_71" x1="89.671" y1="0" x2="89.671" y2="150.654" gradientUnits="userSpaceOnUse">
<stop offset="0.377" stop-color="#E3AD57"/>
<stop offset="0.989" stop-color="#FEFCF0" stop-opacity="0.7"/>
</linearGradient>
</defs>
</svg>
