<svg preserveAspectRatio="none" width="100%" height="100%" overflow="visible" style="display: block;" viewBox="0 0 87.08 87.08" fill="none" xmlns="http://www.w3.org/2000/svg">
<g id="Group">
<path id="Vector" d="M43.54 87.08C67.5865 87.08 87.08 67.5865 87.08 43.54C87.08 19.4935 67.5865 0 43.54 0C19.4935 0 0 19.4935 0 43.54C0 67.5865 19.4935 87.08 43.54 87.08Z" fill="var(--fill-0, white)"/>
<g id="Group_2">
<path id="Vector_2" d="M51.48 49.6C53.21 49.26 55.4 48.56 56.6 47.2C57.11 46.62 57.47 45.94 57.53 45.15C57.63 43.68 56.17 42.02 54.98 41.14C53.85 43.5 52.56 45.67 51.03 47.76C48.48 51.25 45.42 54.48 41.91 57.07C42.69 58.1 43.48 59.07 44.39 59.95L45.61 61.13C46.56 61.95 47.54 62.69 48.68 63.22C48.84 63.29 49.01 63.37 49.09 63.51C48.99 64.03 46.6 63.01 46.3 62.87C44.01 61.79 42.03 60.07 40.32 58.15C37.74 59.71 34.71 61.17 31.64 60.89C31.42 60.87 31.18 60.81 30.97 60.77C29.59 60.48 28.45 59.65 27.77 58.42C26.3 55.74 27.13 51.95 28.13 49.2C28.86 47.28 29.74 45.49 30.89 43.68L32.25 47.48C32.31 47.66 32.24 47.91 32.17 48.06L31.8 49.51C31.74 49.76 31.62 50.52 31.6 50.79C31.49 51.99 31.61 53.23 32.25 54.27C32.97 55.43 34.12 55.75 35.42 55.59L35.91 55.53C36.02 55.52 37.93 55.1 37.74 54.83C36.95 53.64 36.23 52.45 35.56 51.18C33.93 48.09 32.69 44.84 31.79 41.46C31.42 40.05 31.11 38.69 30.92 37.27L30.78 36.18C30.75 35.97 30.75 35.78 30.68 35.55C27.98 35.89 24.22 36.81 21.99 38.45C21.86 38.55 21.68 38.68 21.55 38.55C21.57 38.26 21.76 38.07 21.95 37.87C24.14 35.56 27.48 34.29 30.55 33.63L30.58 31.88C30.61 29.74 31.1 27.08 32.21 25.19C33.01 23.83 34.32 22.71 35.94 22.55C37.37 22.41 38.39 22.7 39.64 23.35C43.02 25.1 45.94 29.23 47.69 32.61L46.12 32.3L45.64 32.21L45.05 32.11L44.2 31.97C44 31.94 43.72 31.93 43.55 31.83C42.32 30.48 40.89 29.09 39.08 28.61C38.38 28.42 37.34 28.44 36.7 28.8C35.35 29.55 34.78 31.49 34.58 32.93C34.6 33.02 34.79 33.01 34.88 33.01L36.07 32.96C37.06 32.92 38.03 32.91 39.03 32.95L39.62 32.98C40.15 33 40.65 33.02 41.17 33.08L42.19 33.18L43.1 33.29L43.95 33.41L44.81 33.55L45.39 33.65L45.98 33.76C48.8 34.3 51.53 35.12 54.16 36.26C54.37 36.35 54.53 36.43 54.77 36.46C55.49 34.69 56.08 32.93 56.4 31.05L56.49 30.51C56.54 30.22 56.6 29.91 56.61 29.61L56.64 27.03C57.17 26.74 57.52 29.6 57.53 29.84C57.58 31.03 57.58 32.13 57.41 33.3L57.3 34.04C57.14 35.13 56.84 36.15 56.53 37.2C56.49 37.34 56.59 37.45 56.7 37.51C58.46 38.48 60.15 39.67 61.5 41.14C62.8 42.56 63.9 44.53 63.59 46.49C63.42 47.53 62.97 48.43 62.25 49.2C60.56 51 57.73 52 55.35 52.42L54.72 52.53L53.97 52.64L53 52.76L51.41 52.87C50.55 52.91 49.71 52.92 48.8 52.86L51.48 49.6ZM53.01 40.19C53.07 40.09 53.18 39.87 53.09 39.82C49.53 37.63 44.15 35.9 40.06 35.46L38.98 35.34C38.42 35.28 37.89 35.23 37.32 35.25L36.89 35.22H34.4C34.39 36.21 34.38 37.15 34.48 38.11L34.59 39.15C35.27 44.46 36.94 49.34 39.75 53.93C39.94 53.94 40.06 53.87 40.23 53.77C43.17 52.03 45.6 49.9 47.93 47.39C49.94 45.21 51.59 42.8 53.01 40.19Z" fill="var(--fill-0, #E6952E)"/>
</g>
</g>
</svg>
